<svg width="64" height="64" viewBox="0 0 64 64" fill="none" xmlns="http://www.w3.org/2000/svg">
<rect width="64" height="64" rx="4" fill="white"/>
<path d="M5.09291 39.1709C4.95449 39.1709 4.51922 39.1499 4.15042 39.1499C4.04797 39.1499 4 39.1649 4 39.2129C4 39.2614 4.03898 39.2763 4.11744 39.2763C4.21339 39.2763 4.33032 39.2823 4.38729 39.2973C4.61567 39.3453 4.66964 39.4562 4.68463 39.6906C4.69962 39.9125 4.69963 40.1079 4.69963 41.1613V42.3802C4.69963 43.0163 4.69963 43.5625 4.66364 43.8539C4.63666 44.0553 4.60068 44.2082 4.46225 44.2352C4.39929 44.2502 4.31833 44.2622 4.21339 44.2622C4.12943 44.2622 4.10195 44.2832 4.10195 44.3191C4.10195 44.3671 4.15042 44.3881 4.24037 44.3881C4.51922 44.3881 4.95449 44.3671 5.1139 44.3671C5.32079 44.3671 5.95145 44.4091 6.11936 44.4091C7.39218 44.4091 7.96837 43.638 7.96837 42.8994C7.96837 42.0888 7.27524 41.5966 6.70755 41.4012C7.08884 41.0984 7.41317 40.759 7.41317 40.1889C7.41317 39.8225 7.19129 39.1499 5.93946 39.1499C5.70209 39.1499 5.43223 39.1709 5.09291 39.1709ZM5.57915 41.3532C5.54917 41.3472 5.52818 41.3322 5.52818 41.2783V39.5672C5.52818 39.4892 5.54317 39.4622 5.59115 39.4502C5.66011 39.4353 5.72308 39.4353 5.81903 39.4353C6.4167 39.4353 6.68656 40.0444 6.68656 40.5097C6.68656 40.849 6.58162 41.0984 6.40171 41.2423C6.28478 41.3472 6.13136 41.3742 5.90348 41.3742C5.74407 41.3742 5.63912 41.3682 5.57915 41.3532ZM5.77105 44.0133C5.54917 43.9229 5.52818 43.8059 5.52818 43.3497V41.7075C5.52818 41.6716 5.54317 41.6596 5.57016 41.6596C5.6751 41.6596 5.74407 41.6596 5.8705 41.6656C6.13735 41.6806 6.29977 41.7285 6.44369 41.8305C6.96891 42.1998 7.11583 42.7795 7.11583 43.2087C7.11583 43.9288 6.59061 44.0973 6.27878 44.0973C6.11936 44.0973 5.95745 44.0883 5.77105 44.0133Z" fill="#6D2071"/>
<path d="M9.76097 39.9155L8.24778 43.701C8.12785 44.0013 8.01391 44.2052 7.73456 44.2442C7.68658 44.2502 7.60263 44.2562 7.54816 44.2562C7.50018 44.2562 7.4762 44.2682 7.4762 44.3042C7.4762 44.3521 7.51218 44.3641 7.59064 44.3641C7.90547 44.3641 8.23579 44.3461 8.30175 44.3461C8.48815 44.3461 8.74901 44.3641 8.94141 44.3641C9.00738 44.3641 9.04336 44.3521 9.04336 44.3042C9.04336 44.2682 9.02537 44.2562 8.9534 44.2562H8.86295C8.67705 44.2562 8.62008 44.1752 8.62008 44.0673C8.62008 43.9953 8.65307 43.8509 8.71303 43.701L9.03736 42.8394C9.04935 42.8035 9.06135 42.7915 9.09133 42.7915H10.4361C10.4661 42.7915 10.4841 42.8035 10.4961 42.8334L10.9763 44.1093C11.0093 44.1812 10.9673 44.2382 10.9253 44.2502C10.8624 44.2562 10.8384 44.2682 10.8384 44.3042C10.8384 44.3461 10.9104 44.3461 11.0213 44.3521C11.4521 44.3631 11.8514 44.3641 12.0852 44.3641C12.0148 44.3633 11.9673 44.3551 11.9673 44.3042C11.9673 44.2682 12.0033 44.2562 12.0632 44.2562C12.1077 44.2562 12.1617 44.2542 12.2152 44.2482C12.1792 44.2437 12.1422 44.2377 12.1052 44.2292C11.9793 44.1992 11.8049 44.1153 11.574 43.5751C11.1897 42.659 10.2262 40.1979 10.0788 39.8675C10.0188 39.7296 9.98285 39.6751 9.92888 39.6751C9.86891 39.6751 9.83293 39.7416 9.76097 39.9155ZM9.18728 42.4462L9.74298 40.963L9.77896 40.909L9.80895 40.963L10.3522 42.4522L10.3222 42.4881H9.21127L9.18728 42.4462ZM12.1067 44.3641C12.1252 44.3641 12.1427 44.3641 12.1592 44.3641C12.2047 44.3641 12.2431 44.3637 12.2756 44.3625C12.2212 44.3633 12.1647 44.3641 12.1067 44.3641Z" fill="#6D2071"/>
<path d="M12.5763 39.9095L12.5224 43.4786C12.5164 44.0013 12.4924 44.1752 12.3335 44.2262C12.249 44.2502 12.1411 44.2562 12.0631 44.2562C12.0031 44.2562 11.9672 44.2682 11.9672 44.3042C11.9672 44.3581 12.0211 44.3641 12.0991 44.3641C12.4144 44.3641 12.6963 44.3461 12.7502 44.3461C12.8647 44.3461 13.1046 44.3641 13.4978 44.3641C13.5818 44.3641 13.6363 44.3521 13.6363 44.3042C13.6363 44.2682 13.5998 44.2562 13.5338 44.2562C13.4379 44.2562 13.3239 44.2502 13.222 44.2142C13.0986 44.1692 13.0206 44.0133 13.0086 43.5446L12.9426 41.0114H12.9606C13.0686 41.1284 13.7382 41.882 14.3954 42.5301C15.023 43.1518 15.7946 43.9409 16.1724 44.3042C16.2389 44.3701 16.3138 44.4366 16.3798 44.4366C16.4338 44.4366 16.4578 44.3821 16.4578 44.2502L16.5237 40.4467C16.5297 40.1079 16.5777 39.9815 16.7461 39.9335C16.8181 39.9155 16.866 39.9155 16.926 39.9155C16.945 39.9155 16.962 39.9139 16.9765 39.9115C16.9435 39.9055 16.926 39.891 16.926 39.8615C16.926 39.8346 16.944 39.8196 16.98 39.8126C16.957 39.8086 16.9275 39.8076 16.896 39.8076C16.6017 39.8076 16.3738 39.8256 16.3048 39.8256C16.1784 39.8256 15.8906 39.8076 15.5782 39.8076C15.4853 39.8076 15.4193 39.8136 15.4193 39.8615C15.4193 39.8975 15.4433 39.9155 15.5183 39.9155C15.6022 39.9155 15.7461 39.9155 15.8366 39.9515C15.9805 40.0115 16.0345 40.1259 16.0405 40.4947L16.1004 43.1997H16.0705C15.9685 43.1033 15.155 42.2358 14.7467 41.8245C13.8671 40.951 12.9486 39.9695 12.8767 39.8915C12.7747 39.7836 12.7203 39.7056 12.6543 39.7056C12.5943 39.7056 12.5763 39.7896 12.5763 39.9095Z" fill="#6D2071"/>
<path d="M20.4143 39.8256C20.2524 39.8256 19.919 39.8076 19.7931 39.8076C19.7271 39.8076 19.6972 39.8196 19.6972 39.8615C19.6972 39.8975 19.7212 39.9095 19.7751 39.9215C19.8351 39.9335 19.8591 39.9755 19.8591 40.0414C19.8591 40.1439 19.7271 40.2968 19.5587 40.4947C19.3848 40.6991 18.5053 41.5966 18.2979 41.8215H18.2679V41.5546C18.2679 40.6391 18.2679 40.4707 18.2799 40.2758C18.2919 40.0654 18.3429 39.9635 18.5053 39.9335C18.5773 39.9215 18.6132 39.9155 18.6732 39.9155C18.7212 39.9155 18.7572 39.9035 18.7572 39.8615C18.7572 39.8196 18.7152 39.8076 18.6312 39.8076C18.4273 39.8076 18.046 39.8256 17.9016 39.8256C17.7577 39.8256 17.3764 39.8076 17.0581 39.8076C16.9681 39.8076 16.9261 39.8196 16.9261 39.8615C16.9261 39.9035 16.9621 39.9155 17.0281 39.9155C17.1125 39.9155 17.2145 39.9215 17.2625 39.9335C17.4604 39.9755 17.5088 40.0714 17.5238 40.2758C17.5328 40.4707 17.5328 40.6391 17.5328 41.5546V42.6141C17.5328 43.1698 17.5328 43.647 17.5023 43.8989C17.4783 44.0733 17.4483 44.2052 17.3284 44.2322C17.2744 44.2442 17.2025 44.2562 17.1125 44.2562C17.0401 44.2562 17.0161 44.2742 17.0161 44.3042C17.0161 44.3461 17.0581 44.3641 17.1365 44.3641C17.3764 44.3641 17.7577 44.3461 17.8956 44.3461C18.046 44.3461 18.4273 44.3641 18.7631 44.3641C18.8296 44.3641 18.8776 44.3461 18.8776 44.3042C18.8776 44.2742 18.8476 44.2562 18.7991 44.2562C18.7212 44.2562 18.5892 44.2442 18.5053 44.2322C18.3519 44.2052 18.2979 44.0733 18.2859 43.9049C18.2679 43.647 18.2679 43.1698 18.2679 42.6141V42.0679H18.2979L18.3639 42.1578C18.4933 42.3322 19.6787 43.725 19.943 43.9588C20.2044 44.1902 20.3663 44.3221 20.6936 44.3521C20.8195 44.3641 20.9275 44.3641 21.1079 44.3641H21.6331C21.747 44.3641 21.777 44.3461 21.777 44.3042C21.777 44.2682 21.741 44.2562 21.6991 44.2562C21.6271 44.2562 21.5042 44.2382 21.3238 44.1632C20.9999 44.0373 20.7266 43.7669 20.4622 43.5146C20.2284 43.2897 19.0455 42.0199 18.8296 41.7345C19.0335 41.5186 19.943 40.6151 20.1324 40.4347C20.3903 40.1799 20.5947 40.0534 20.7836 39.9815C20.8975 39.9395 21.0479 39.9155 21.1319 39.9155C21.1918 39.9155 21.2218 39.9035 21.2218 39.8615C21.2218 39.8196 21.1798 39.8076 21.1199 39.8076C20.9335 39.8076 20.6007 39.8256 20.4143 39.8256" fill="#6D2071"/>
<path d="M28.4144 39.1649L26.5319 43.1183L24.6409 39.2129C24.5509 39.033 24.509 39 24.455 39C24.3975 39 24.3556 39.06 24.3376 39.1799L23.6504 43.695C23.6174 43.9289 23.56 44.1992 23.3651 44.2412C23.2631 44.2622 23.2152 44.2622 23.1582 44.2622C23.0887 44.2622 23.0468 44.2772 23.0468 44.3102C23.0468 44.3731 23.1037 44.3881 23.1732 44.3881C23.3951 44.3881 23.7284 44.3671 23.8573 44.3671C23.9833 44.3671 24.2956 44.3881 24.5869 44.3881C24.6889 44.3881 24.7518 44.3731 24.7518 44.3102C24.7518 44.2772 24.7039 44.2622 24.6469 44.2622C24.5779 44.2622 24.482 44.2562 24.3556 44.2292C24.2386 44.1992 24.1487 44.1392 24.1487 44.0073C24.1487 43.8959 24.1577 43.8059 24.1697 43.68L24.53 40.924H24.5569C24.7998 41.4437 25.2141 42.3172 25.2771 42.4611C25.3615 42.656 25.9077 43.716 26.0756 44.0343C26.1871 44.2412 26.256 44.3791 26.316 44.3791C26.379 44.3791 26.4149 44.3191 26.5739 43.9918L28.0841 40.849H28.111L28.5253 43.8959C28.5553 44.0883 28.5343 44.1782 28.4923 44.1932C28.4444 44.2142 28.4144 44.2352 28.4144 44.2682C28.4144 44.3102 28.4564 44.3311 28.6153 44.3461C28.8946 44.3671 29.8491 44.3881 30.023 44.3881C30.1195 44.3881 30.2034 44.3671 30.2034 44.3102C30.2034 44.2682 30.1554 44.2622 30.0925 44.2622C30.002 44.2622 29.8641 44.2562 29.6632 44.1932C29.4528 44.1303 29.3839 43.9289 29.3239 43.4936L28.6932 39.2129C28.6722 39.069 28.6303 39 28.5673 39C28.5043 39 28.4654 39.054 28.4144 39.1649Z" fill="#6D2071"/>
<path d="M33.5147 39.8376C33.5087 39.8376 33.1304 39.8196 32.8241 39.8196C32.7401 39.8196 32.6982 39.8316 32.6982 39.8735C32.6982 39.9155 32.7341 39.9275 32.8001 39.9275C32.8661 39.9275 32.968 39.9335 33.016 39.9455C33.2144 39.9875 33.2624 40.0834 33.2744 40.2878C33.2863 40.4797 33.2863 40.6481 33.2863 41.5636V42.3142C33.2863 42.9324 33.2684 43.4726 32.938 43.8029C32.6982 44.0433 32.3738 44.1273 32.1095 44.1273C31.9056 44.1273 31.6292 44.1033 31.3594 43.8809C31.065 43.641 30.8906 43.2747 30.8906 42.4042V41.5636C30.8906 40.6481 30.8906 40.4797 30.9026 40.2878C30.9146 40.0774 30.9631 39.9755 31.125 39.9455C31.197 39.9335 31.2329 39.9275 31.2989 39.9275C31.3594 39.9275 31.3954 39.9155 31.3954 39.8735C31.3954 39.8316 31.3534 39.8196 31.2629 39.8196C31.047 39.8196 30.6687 39.8376 30.5248 39.8376C30.3444 39.8376 29.9661 39.8196 29.6483 39.8196C29.5578 39.8196 29.5159 39.8316 29.5159 39.8735C29.5159 39.9155 29.5518 39.9275 29.6178 39.9275C29.7023 39.9275 29.8042 39.9335 29.8522 39.9455C30.0501 39.9875 30.0986 40.0834 30.1106 40.2878C30.1225 40.4797 30.1225 40.6481 30.1225 41.5636V42.4402C30.1225 43.3107 30.3504 43.755 30.6568 44.0313C31.095 44.4271 31.6712 44.4456 31.9895 44.4456C32.3798 44.4456 32.8121 44.3791 33.2384 44.0133C33.7426 43.581 33.8086 42.8724 33.8086 42.2058V41.5636C33.8086 40.6481 33.8086 40.4797 33.8206 40.2878C33.8326 40.0774 33.8805 39.9755 34.0429 39.9455C34.1149 39.9335 34.1509 39.9275 34.2168 39.9275C34.2888 39.9275 34.3248 39.9155 34.3248 39.8735C34.3248 39.8316 34.2828 39.8196 34.1989 39.8196C33.965 39.8196 33.5867 39.8376 33.5147 39.8376Z" fill="#6D2071"/>
<path d="M35.9279 39.9275L34.4212 43.701C34.3007 44.0013 34.1868 44.2052 33.9104 44.2412C33.8625 44.2472 33.7785 44.2532 33.7245 44.2532C33.6766 44.2532 33.6526 44.2652 33.6526 44.3012C33.6526 44.3491 33.6886 44.3611 33.7665 44.3611C34.0789 44.3611 34.4092 44.3431 34.4751 44.3431C34.661 44.3431 34.9194 44.3611 35.1113 44.3611C35.1773 44.3611 35.2133 44.3491 35.2133 44.3012C35.2133 44.2652 35.1953 44.2532 35.1233 44.2532H35.0333C34.8474 44.2532 34.793 44.1752 34.793 44.0673C34.793 43.9953 34.8235 43.8509 34.8834 43.701L35.2073 42.8424C35.2193 42.8065 35.2312 42.7945 35.2617 42.7945H36.6005L36.6605 42.8364L37.1407 44.1093C37.1707 44.1812 37.1287 44.2352 37.0868 44.2472C37.0298 44.2532 37.0028 44.2652 37.0028 44.3012C37.0028 44.3431 37.0748 44.3431 37.1857 44.3491C37.6659 44.3611 38.1042 44.3611 38.3206 44.3611C38.3246 44.3611 38.3291 44.3611 38.3331 44.3611C38.2771 44.3603 38.2331 44.3471 38.2331 44.2952C38.2331 44.2652 38.2696 44.2532 38.3296 44.2532C38.3576 44.2532 38.384 44.2532 38.4195 44.2496C38.3706 44.2456 38.3186 44.2396 38.2666 44.2291C38.1402 44.1991 37.9663 44.1152 37.7379 43.575C37.3536 42.662 36.3901 40.2098 36.2462 39.8795C36.1862 39.7415 36.1502 39.6876 36.0958 39.6876C36.0358 39.6876 35.9998 39.7535 35.9279 39.9274L35.9279 39.9275ZM35.3577 42.4521L35.9099 40.9719L35.9458 40.9179L35.9758 40.9719L36.516 42.4581L36.4861 42.494H35.3816L35.3577 42.4521Z" fill="#6D2071"/>
<path d="M42.8892 39.8316L41.256 43.2627L39.6144 39.8735C39.536 39.7176 39.5 39.6876 39.452 39.6876C39.404 39.6876 39.368 39.7416 39.3501 39.8435L38.7559 43.7609C38.7259 43.9648 38.6774 44.1992 38.5095 44.2352C38.4196 44.2532 38.3776 44.2532 38.3296 44.2532C38.2696 44.2532 38.2332 44.2652 38.2332 44.2952C38.2332 44.3491 38.2816 44.3611 38.3416 44.3611C38.5335 44.3611 38.8218 44.3431 38.9358 44.3431C39.0437 44.3431 39.3141 44.3611 39.5664 44.3611C39.6564 44.3611 39.7104 44.3491 39.7104 44.2952C39.7104 44.2652 39.6684 44.2532 39.6204 44.2532C39.5604 44.2532 39.476 44.2472 39.368 44.2232C39.2661 44.1992 39.1881 44.1452 39.1881 44.0313C39.1881 43.9349 39.1941 43.8569 39.2061 43.749L39.518 41.3592H39.542C39.7523 41.8095 40.1126 42.5661 40.1666 42.692C40.2386 42.8604 40.7128 43.7789 40.8602 44.0553C40.9562 44.2352 41.0162 44.3551 41.0701 44.3551C41.1241 44.3551 41.1541 44.3012 41.2925 44.0193L42.6013 41.2933H42.6253L42.9851 43.9349C43.0091 44.1033 42.9911 44.1812 42.9551 44.1932C42.9132 44.2112 42.8892 44.2292 42.8892 44.2592C42.8892 44.2952 42.9251 44.3132 43.0636 44.3251C43.2575 44.3401 43.8367 44.3541 44.1305 44.3596C44.0825 44.3546 44.06 44.3391 44.06 44.3011C44.06 44.2652 44.084 44.2532 44.132 44.2532C44.162 44.2532 44.2015 44.2512 44.2389 44.2486C44.169 44.2421 44.08 44.2277 43.9701 44.1932C43.7897 44.1392 43.7297 43.9648 43.6757 43.587L43.1295 39.8735C43.1115 39.7476 43.0756 39.6876 43.0216 39.6876C42.9671 39.6876 42.9311 39.7356 42.8892 39.8315V39.8316ZM44.2379 44.3611C44.2559 44.3611 44.2709 44.3611 44.2819 44.3611C44.2939 44.3611 44.3049 44.3611 44.3159 44.3603C44.2899 44.3607 44.2639 44.3607 44.2379 44.3611Z" fill="#6D2071"/>
<path d="M46.3383 39.9275L44.8316 43.701C44.7112 44.0013 44.5973 44.2052 44.3184 44.2412C44.2699 44.2472 44.186 44.2532 44.132 44.2532C44.084 44.2532 44.0601 44.2652 44.0601 44.3012C44.0601 44.3491 44.096 44.3611 44.174 44.3611C44.4893 44.3611 44.8197 44.3431 44.8856 44.3431C45.0715 44.3431 45.3299 44.3611 45.5218 44.3611C45.5877 44.3611 45.6242 44.3491 45.6242 44.3012C45.6242 44.2652 45.6058 44.2532 45.5338 44.2532H45.4438C45.2579 44.2532 45.2039 44.1752 45.2039 44.0673C45.2039 43.9953 45.2339 43.8509 45.2939 43.701L45.6182 42.8424C45.6302 42.8065 45.6422 42.7945 45.6722 42.7945H47.011L47.0709 42.8364L47.5512 44.1093C47.5812 44.1812 47.5392 44.2352 47.4972 44.2472C47.4372 44.2532 47.4133 44.2652 47.4133 44.3012C47.4133 44.3431 47.4852 44.3431 47.5932 44.3491C48.0734 44.3611 48.5117 44.3611 48.7281 44.3611C48.8735 44.3611 48.9469 44.3561 48.9799 44.3391C48.9679 44.3296 48.9619 44.3171 48.9619 44.3012C48.9619 44.2846 48.9695 44.2722 48.9874 44.2637C48.9739 44.2552 48.9529 44.2532 48.9259 44.2532C48.854 44.2532 48.764 44.2472 48.6741 44.2292C48.5476 44.1992 48.3737 44.1153 48.1453 43.575C47.7611 42.662 46.8006 40.2098 46.6566 39.8795C46.5967 39.7416 46.5607 39.6876 46.5067 39.6876C46.4463 39.6876 46.4103 39.7536 46.3383 39.9275H46.3383ZM45.7681 42.4521L46.3203 40.9719L46.3563 40.918L46.3863 40.9719L46.927 42.4581L46.8965 42.4941H45.7921L45.7681 42.4521" fill="#6D2071"/>
<path d="M49.8624 39.8376C49.7005 39.8376 49.3222 39.8196 49.0399 39.8196C48.9499 39.8196 48.908 39.8316 48.908 39.8735C48.908 39.9155 48.9439 39.9275 49.0099 39.9275C49.0884 39.9275 49.1603 39.9335 49.2083 39.9455C49.4062 39.9875 49.4542 40.0834 49.4662 40.2878C49.4781 40.4797 49.4781 40.6481 49.4781 41.5636V42.6201C49.4781 43.1728 49.4782 43.647 49.4482 43.8989C49.4242 44.0733 49.3942 44.2052 49.2743 44.2292C49.2203 44.2412 49.1483 44.2532 49.0579 44.2532C48.9859 44.2532 48.9619 44.2712 48.9619 44.3012C48.9619 44.3431 49.0039 44.3611 49.0824 44.3611C49.3222 44.3611 49.7005 44.3431 49.8385 44.3431C50.3247 44.3431 50.721 44.3791 51.5855 44.3791C51.8979 44.3791 51.9278 44.3491 51.9638 44.2172C52.0118 44.0433 52.0538 43.593 52.0538 43.5266C52.0538 43.4546 52.0478 43.4246 52.0058 43.4246C51.9578 43.4246 51.9458 43.4606 51.9398 43.5146C51.9278 43.629 51.8559 43.7969 51.7839 43.8749C51.6335 44.0373 51.3996 44.0433 51.0813 44.0433C50.613 44.0433 50.4571 44.0013 50.3547 43.9109C50.2287 43.8029 50.2287 43.3887 50.2287 42.6201V41.5636C50.2287 40.6481 50.2287 40.4797 50.2407 40.2878C50.2527 40.0774 50.3007 39.9755 50.4631 39.9455C50.5351 39.9335 50.631 39.9275 50.697 39.9275C50.769 39.9275 50.8054 39.9155 50.8054 39.8735C50.8054 39.8316 50.763 39.8196 50.679 39.8196C50.4451 39.8196 50.0069 39.8376 49.8624 39.8376Z" fill="#6D2071"/>
<path d="M54.3116 39.9275L52.8014 43.701C52.6845 44.0013 52.5676 44.2052 52.2912 44.2412C52.2432 44.2472 52.1593 44.2532 52.1053 44.2532C52.0568 44.2532 52.0328 44.2652 52.0328 44.3012C52.0328 44.3491 52.0688 44.3611 52.1473 44.3611C52.4621 44.3611 52.7894 44.3431 52.8554 44.3431C53.0448 44.3431 53.2997 44.3611 53.4951 44.3611C53.561 44.3611 53.597 44.3491 53.597 44.3012C53.597 44.2652 53.579 44.2532 53.507 44.2532H53.4171C53.2307 44.2532 53.1737 44.1752 53.1737 44.0673C53.1737 43.9953 53.2037 43.8509 53.2637 43.701L53.591 42.8424C53.603 42.8065 53.615 42.7945 53.645 42.7945H54.9838L55.0437 42.8364L55.524 44.1093C55.5544 44.1812 55.512 44.2352 55.47 44.2472C55.41 44.2532 55.386 44.2652 55.386 44.3012C55.386 44.3431 55.458 44.3431 55.5664 44.3491C56.0467 44.3611 56.485 44.3611 56.7008 44.3611C56.9232 44.3611 56.9772 44.3491 56.9772 44.3012C56.9772 44.2592 56.9472 44.2532 56.8992 44.2532C56.8268 44.2532 56.7368 44.2472 56.6469 44.2292C56.5209 44.1992 56.3465 44.1153 56.1186 43.575C55.7344 42.662 54.7739 40.2098 54.6294 39.8795C54.5695 39.7416 54.5335 39.6876 54.4795 39.6876C54.4196 39.6876 54.3836 39.7536 54.3116 39.9275ZM53.7409 42.4521L54.2936 40.9719L54.3296 40.918L54.3596 40.9719L54.8998 42.4581L54.8698 42.4941H53.7649L53.7409 42.4521Z" fill="#6D2071"/>
<path d="M56.0676 39.8495C56.0556 39.8975 55.9412 40.4437 55.9412 40.5397C55.9412 40.6061 55.9532 40.6361 55.9956 40.6361C56.0316 40.6361 56.0496 40.6121 56.0616 40.5642C56.0736 40.5157 56.1036 40.4437 56.1635 40.3538C56.2535 40.2218 56.3974 40.1919 56.7457 40.1799L57.6403 40.1559V42.6201C57.6403 43.1728 57.6402 43.647 57.6103 43.8989C57.5923 44.0733 57.5563 44.2052 57.4364 44.2292C57.3824 44.2412 57.3104 44.2532 57.22 44.2532C57.148 44.2532 57.124 44.2712 57.124 44.3012C57.124 44.3431 57.166 44.3611 57.244 44.3611C57.4843 44.3611 57.8626 44.3431 58.0006 44.3431C58.169 44.3431 58.5468 44.3611 58.9431 44.3611C59.0095 44.3611 59.0575 44.3431 59.0575 44.3012C59.0575 44.2712 59.0275 44.2532 58.961 44.2532C58.8711 44.2532 58.7392 44.2412 58.6552 44.2292C58.4748 44.2052 58.4388 44.0733 58.4208 43.9049C58.3909 43.647 58.3909 43.1728 58.3909 42.6201V40.1559L59.1474 40.1739C59.6817 40.1859 59.8436 40.3538 59.8556 40.5097L59.8616 40.5762C59.8676 40.6661 59.8796 40.6961 59.928 40.6961C59.964 40.6961 59.976 40.6601 59.985 40.6001C59.985 40.4437 60 40.0294 60 39.9035C60 39.8136 59.994 39.7776 59.952 39.7776C59.904 39.7776 59.7626 39.8375 59.3753 39.8375H56.9981C56.7997 39.8375 56.5718 39.8256 56.3974 39.8076C56.2475 39.7956 56.1875 39.7356 56.1396 39.7356C56.1036 39.7356 56.0856 39.7716 56.0676 39.8495Z" fill="#6D2071"/>
<path d="M25 23.0628C26.3735 20.6368 28.9791 19 31.9656 19C35.178 19 37.9482 20.8933 39.221 23.6254C39.1074 23.7621 38.9938 23.8818 38.8897 23.9642C38.4434 24.3145 37.9101 24.2186 37.9101 24.2186V21.8443C37.9101 21.8443 36.9298 23.2702 35.7263 23.2702H32.9779L32.9459 22.2906C32.9459 22.2906 32.5629 22.7287 32.0928 23.0158C31.6228 23.3022 30.7942 23.3662 30.7942 23.3662V27.0636C30.7942 29.4936 28.2287 30.0671 27.8539 30.0671C27.4797 30.0671 25.0728 30.227 25.0728 27.0956C25.0728 23.9642 30.3486 23.3981 30.3486 23.3981C30.3486 23.3981 29.1526 23.0158 27.5355 22.6968C26.6688 22.5267 25.7069 22.7852 25 23.0628H25ZM39.7503 28.8521C38.9149 32.3774 35.7467 35 31.9656 35C29.4002 35 27.1164 33.7918 25.6531 31.9142C26.1933 32.1244 26.8749 32.3149 27.5668 32.3149C31.6472 32.3149 32.9779 29.1827 32.9779 28.1072V25.1669H37.7829V28.6487C37.7829 28.6487 36.9931 28.7045 36.3243 28.7045C35.6549 28.7045 34.9379 28.5854 34.9059 28.8963C34.8739 29.2072 34.6508 29.7168 34.1167 30.3862C33.6562 30.9645 34.5555 30.761 35.408 30.761H37.7183C37.7183 30.761 38.2285 30.3542 38.9217 29.5018C39.2136 29.1426 39.5006 28.9508 39.7503 28.8521Z" fill="#366549"/>
<path d="M35.399 27.0208L34.2922 28.1276L33.186 27.0208L34.2922 25.9146L35.399 27.0208ZM35.3827 27.0208L36.4888 25.9146L37.5957 27.0208L36.4888 28.1276L35.3827 27.0208ZM26.7993 27.0208L27.9062 25.9146L29.0123 27.0208L27.9062 28.1276" fill="white"/>
</svg>
